<svg xmlns="http://www.w3.org/2000/svg" viewBox="0 0 498.51 263.72"><defs><style>.cls-1{isolation:isolate;}.cls-2,.cls-4{fill:#fff;}.cls-3{fill:#e5077e;mix-blend-mode:multiply;}.cls-4{font-size:16.71px;font-family:BrandonGrotesque-Regular, Brandon Grotesque;}.cls-5{letter-spacing:-0.01em;}.cls-6{letter-spacing:0em;}.cls-7{letter-spacing:0.02em;}</style></defs><g class="cls-1"><g id="Capa_2" data-name="Capa 2"><g id="Capa_1-2" data-name="Capa 1"><path class="cls-2" d="M25.34,17.71H34V91.42H25.34V55.7H13.53V91.42H4.86V17.71h8.67V48.62H25.34Z"></path><path class="cls-2" d="M46.74,17.71h8.67V91.42H46.74Z"></path><path class="cls-2" d="M68.14,17.71H83q9.81,0,12.32,8.13a40.29,40.29,0,0,1,1.59,11.94A102.59,102.59,0,0,1,96.49,48q-.84,7.53-4,11T83,62.48H76.81V91.42H68.14ZM88.2,38.53Q88.2,31,87,27.77a4.6,4.6,0,0,0-4.72-3.19H76.81v30.7h5.27A4.74,4.74,0,0,0,87,52.06Q88.2,48.83,88.2,40Z"></path><path class="cls-2" d="M104.57,37.73q0-12.55,4.53-17.25,3.56-3.69,10.34-3.69,9.88,0,12.65,8.13a40.93,40.93,0,0,1,1.63,12.81v32.5q0,11.52-3.22,16.78t-11.29,5.25q-8.05,0-11.35-5.28t-3.29-16.75Zm6.62-30.44L128.74,0V8.33l-17.55,3.61Zm13.86,29.94c0-4.72-.37-8.06-1.13-10a4.41,4.41,0,0,0-4.56-2.95,4.81,4.81,0,0,0-4.78,3q-1.33,3-1.34,9.93V70.32q0,8.42,1.18,11.45a5.19,5.19,0,0,0,9.46,0q1.17-3.08,1.17-11.41Z"></path><path class="cls-2" d="M4,112.31Q4,103.93,5.4,100a17.58,17.58,0,0,1,3-5.78q3.55-4,10.38-4.07,9.56,0,12.32,8.42a42.07,42.07,0,0,1,1.59,12.82v8.16h-8.5v-8.2q0-7.08-.78-9.57a6.59,6.59,0,0,0-1.86-3.31,4.47,4.47,0,0,0-2.77-.82A4.79,4.79,0,0,0,14,100.94c-.88,2.19-1.32,5.65-1.32,10.36v31.92q0,8.37,1.19,11.7a4.54,4.54,0,0,0,4.61,3.33,4.47,4.47,0,0,0,4.56-3.35q1.15-3.35,1.16-11.72V135h8.58v8.08q0,11.6-3.16,17.07t-11,5.46c-5.24,0-9-1.88-11.22-5.63S4,150.57,4,143Z"></path><path class="cls-2" d="M43.3,91H58.76q6.57,0,9.46,2.73T71.7,103c.17,1.79.25,4.57.25,8.36a26.57,26.57,0,0,1-1.49,9.52,7.85,7.85,0,0,1-5.25,5,5.75,5.75,0,0,1,4.19,2.91q1.41,2.44,2,7.79A158.68,158.68,0,0,1,72,152.45q0,10.53.67,12.29H64q-.66-1.34-.67-24.83c0-5.28-.51-8.34-1.55-9.19a7.19,7.19,0,0,0-4.69-1.28l-5.15-.3v35.6H43.3Zm20.06,18q0-8.49-1.52-9.84a6.54,6.54,0,0,0-4.42-1.34H52v24.88H57.5a5.8,5.8,0,0,0,3.69-1,6.14,6.14,0,0,0,1.67-3.69,51.37,51.37,0,0,0,.5-8.54Z"></path><path class="cls-2" d="M91.13,91h10.43l12.19,73.71h-8.17l-2.1-14.07H90.13L88.2,164.74H80Zm0,52.61H102.4l-5.83-38.95h-.12Z"></path><path class="cls-2" d="M0,164.35H24.33v7.21H16.75v66.5H8.12v-66.5H0Z"></path><path class="cls-2" d="M31.54,164.35h22v7.21H40.2v25.21H52.85V204H40.2v26.89H53.73v7.2H31.54Z"></path><path class="cls-2" d="M63,187.18a23,23,0,0,1-.76-6.33q0-8,3-12.71c2-3.14,5.73-4.71,11.28-4.71q10.73,0,12.65,10.3A61.81,61.81,0,0,1,90,184.92v4.35H81.67v-4.94q0-7-.72-9.46a6.19,6.19,0,0,0-1.76-3.23,4.35,4.35,0,0,0-2.72-.8A4.86,4.86,0,0,0,72,173.15C71,174.68,70.57,177,70.57,180s.42,5.23,1.25,6.62a22.07,22.07,0,0,0,3.1,4c1.23,1.27,1.91,2,2.06,2.16l5,5.32q9,9.47,9,21.19,0,9.54-3,14.59T76.85,238.9q-10,0-12.69-8.79a44.52,44.52,0,0,1-1.55-13v-7.58H71v7.5q0,8.08,1.17,11.25a4.34,4.34,0,0,0,4.36,3.16c2.12,0,3.58-.5,4.39-1.49a7.9,7.9,0,0,0,1.41-4.54c.12-2,.19-4.33.19-6.87q0-7.67-6.75-14.41L71,199.37Q64.54,192.74,63,187.18Z"></path><path class="cls-2" d="M316.32,204.24c2.86-1.43,5.71-2.9,8.6-4.3,6.26-3,12.56-6,18.82-9,7.08-3.42,12.55-8.9,18.16-14.22,8.29-7.87,16.4-16,26.05-22.21a38.86,38.86,0,0,1,10.15-5.06c7.06-2,11.9.05,14.95,7.79a26.66,26.66,0,0,1,1.39,16.58c-2,8.05-5.89,14.88-13.57,18.79-3.77,1.92-7.86,3.2-11.6,5.14-6,3.11-11.88,6.43-17.71,9.83a275.85,275.85,0,0,1-25.22,13.48c-4.63,2.1-9.1,4.54-13.71,6.69C327,230.38,321,231.3,314.86,232c-4.33.46-8.66.92-13,1.15-5.55.29-11,0-16.24-2.4-6.29-2.87-7.68-8.49-6.21-14.67s6-8.8,11.14-11.09c3.56-1.6,7.12-3.2,10.66-4.84a7,7,0,0,0,1.28-1l-.12-.64a59.25,59.25,0,0,0-6,0c-4,.38-7.51,2.12-11,3.87a18.84,18.84,0,0,1-2.16,1.07,6.43,6.43,0,0,1-1.65.1,5,5,0,0,1,.26-1.48c2-3.76,3.83-7.55,6-11.21,3.49-6,6.89-12.13,10.82-17.87,2.65-3.86,6.2-7.1,9.26-10.7a4.62,4.62,0,0,0,1.07-2.68A216.44,216.44,0,0,0,307.22,129a61.7,61.7,0,0,0-2.83-12,18.64,18.64,0,0,0-9.53-10.77,77.52,77.52,0,0,1-17.63-12c-1.93-1.78-4.08-3.32-6.17-4.91-.73-.56-1.55-1.35-2.56-.41s-.51,1.76-.14,2.77c1,2.66,1.77,5.38,2.62,8.08a21.62,21.62,0,0,1,.94,3.39c.27,2,.4,4,.51,6.08.27,4.81.66,9.62.69,14.43.05,8.33-.16,16.66-.2,25a2.89,2.89,0,0,0,.72,2A9,9,0,0,1,275.05,163c-3.74,5.1-10.9,6.22-15,3.23a9.59,9.59,0,0,1-3.33-9.32c.93-4.88,3.89-8.16,8-10.51a4.31,4.31,0,0,0,2.4-4.57c-.52-7.82-.87-15.66-1.3-23.49-.27-4.82-.58-9.65-.9-14.47a32.05,32.05,0,0,0-.44-3.51A2.7,2.7,0,0,0,261.9,98a2.65,2.65,0,0,0-2.94,2c-1.14,3.69-2.14,7.42-3.4,11.06-1.64,4.7-3.45,9.34-5.23,14s-3.76,9.47-5.58,14.23a7.33,7.33,0,0,1-6.55,4.94,7.42,7.42,0,0,1-7.35-3.68c-3.34-5.3-6.9-10.48-9.86-16-2.27-4.23-3.8-8.85-5.55-13.34-.5-1.27-1.36-2.26-2.5-2a3.31,3.31,0,0,0-2.08,2.24c-.6,4.24-1,8.52-1.29,12.79a69.93,69.93,0,0,0,.1,7.38,7.78,7.78,0,0,0,3,5.52c2.85,2.56,5.53,5.3,6.95,9a110.19,110.19,0,0,1,3.87,10.89c.43,1.62-.25,3.53-.44,5.31-.15,1.43-.42,2.86-.44,4.28-.05,4,.12,8,0,11.93-.18,5.69-1.51,11-5.17,15.6a5.75,5.75,0,0,0-.41,1c1.48-.39,2.68-.64,3.83-1a10,10,0,0,1,7.81.44c1.52.74,1.67,2.18.12,2.89a24.09,24.09,0,0,1-5.93,1.94c-3,.49-6.14,1.12-9.08.72-3.42-.47-6.69,0-10,.09a26.08,26.08,0,0,1-6.81-.72,4.47,4.47,0,0,1-3.39-3.9,6.65,6.65,0,0,1,.11-1.53c.47.08,1,.12,1.43.24,2.21.56,4.41,1.23,6.64,1.69a12,12,0,0,0,2.89-.15,60.11,60.11,0,0,1-2.59-6.37c-1.07-3.76-1.87-7.6-2.76-11.41s-1.72-7.64-2.68-11.43a10.66,10.66,0,0,0-1.39-2.47c0-.05-.07-.08-.11-.12-1.89-2.07-1.79-3.06.42-4.37-4.14-7.47-.79-13.62,3.53-19.5,1-1.34,2.59-2.23,3.83-3.4a2.19,2.19,0,0,0,.79-1.52c-1.17-7.45.13-14.76,1-22.12a27.46,27.46,0,0,1,2.54-8.91c1.31-2.74,2.52-5.53,3.61-8.36.65-1.68.19-2.19-1.51-1.75-2.85.75-5.62,1.77-8.47,2.51-3.61.95-7.25,1.84-10.91,2.59-2.88.59-6,.46-8.68,1.52a25.51,25.51,0,0,0-9.83,6.47c-4.45,4.9-7,10.87-10,16.59-2.68,5.07-5.22,10.21-8,15.23A80.42,80.42,0,0,0,147,154.89c-1.85,6.21-3.39,12.54-5.72,18.56-1.69,4.36-4.49,8.28-6.72,12.43-3,5.52-6.06,11-7.73,17.09a15.73,15.73,0,0,0-.33,8.11c.44,1.78,1.55,2.46,2.87,1.62a1.77,1.77,0,0,0,.76-1.38c-1.06-5.11,1.21-9.23,3.94-13.14,1.72-2.46,3.73-4.71,5.58-7.07.81-1.05,1.64-2.05,1.57-3.58,0-.51.75-1.32,1.33-1.55,3.19-1.28,6.46-.84,9.65,0a1.28,1.28,0,0,1,.54,2.3,52.9,52.9,0,0,1-5.19,4.51,27.19,27.19,0,0,0-9,10.88,44.51,44.51,0,0,1-5.13,7.73c-.77,1-.87,1.66-.07,2.63a18.61,18.61,0,0,0,8.65,5.64c3.84,1.33,7.78,2.36,11.71,3.42a21.3,21.3,0,0,0,3.58.37c.09-.44.2-.63.14-.74-2.7-4.78-1.69-9.6.17-14.24,2.78-6.94,6.71-8.49,14.68-8.27,3.32.09,6.62.67,9.93,1a10.75,10.75,0,0,0,1.28,0c-.94-1.79-2-2.27-3.53-1.76-2.29.75-4.4-.08-6.38-1a67.78,67.78,0,0,1-16.37-10.42,14.81,14.81,0,0,1-3.08-3.66c-1.28-2.19-.26-3.7,2.25-3.61,3.09.1,5.73,1.59,8.12,3.24,5.16,3.55,10.13,7.38,15.11,11.17,1.09.83,1.85,1.4,3.4.73a7.9,7.9,0,0,1,7.13.42c3,1.62,3.45,3.79,1.17,6.32a23,23,0,0,1,3.32,2.4,51.61,51.61,0,0,1,3.64,4.43c.85,1.07,1.58,2.24,2.49,3.27,1.23,1.4,2.66,2.65,3.84,4.1.42.51.32,1.42.46,2.15-.68.09-1.52.48-2,.22-2.68-1.32-5.33-2.73-7.89-4.28-1.29-.78-.4-1.32.5-1.74,1.59-.72,1.7-1.27.6-2.27-.76-.68-1.24-.57-1.76.31a13.38,13.38,0,0,1-1.52,1.78c-.27.31-.74.62-.75.95-.18,3.68-2.64,5.84-5.2,7.92-1.33,1.08-2.78,2-4.08,3.09a5.81,5.81,0,0,1-4.65,1.37c-2.92-.35-5.83-.88-8.75-1.29-1.17-.16-2.35-.21-3.53-.3l-.09.65c1.88.45,3.75,1.07,5.66,1.33,6.9,1,13.84,1.72,20.74,2.74,2.92.42,5.49-.41,8.12-1.36a66.77,66.77,0,0,1,21.16-3.64,100.25,100.25,0,0,1,26.16,3.08c3.48.85,6.89,2,10.3,3.13a6.29,6.29,0,0,1,1.64,1.23,6.06,6.06,0,0,1-1.92.76c-5.69.17-11.39.4-17.08.34-10.16-.12-20.31-.38-30.46-.7-4.24-.14-8.46-.62-12.69-.93a2.28,2.28,0,0,0-1.11.09c-4.47,2.17-9.32,2-14.05,2.06q-40,.58-80,.92c-8.7.08-17.41-.11-26.12-.18a3.88,3.88,0,0,1-1.28,0c-.35-.13-.62-.51-.92-.78.29-.23.54-.59.86-.67a5.82,5.82,0,0,1,1.45,0c20.21,0,40.43.15,60.64.08,13.81,0,27.63-.33,41.44-.58,3.65-.06,7.3-.37,10.94-.6a4.71,4.71,0,0,0,1.19-.38l-.06-.43-1.33-.17c-7.91-.79-15.81-1.62-23.52-3.67-1.12-.29-2.6-.54-2.45-2.06.16-1.67,1.67-1.84,3-1.72,2.34.23,4.67.6,7,.94.85.12,1.69.37,2.54.44,2.63.22,5.14.44,7.26-1.9,1.81-2,4.17-3.48,6.13-5.36,1.19-1.14,2-2.49.4-4.15-.71-.72-.17-1.37.88-1.39,2,0,2.65-.69,3-2.56a12.38,12.38,0,0,1,.92-2.18,12.51,12.51,0,0,0-7.36-4c-3.66-.51-7.37-.72-11.06-1a71.49,71.49,0,0,0-7.88-.19c-4.65.24-7.49,3.14-8.95,7.22a40,40,0,0,0-1.46,8,5.47,5.47,0,0,0,1.14,4.22,2.21,2.21,0,0,1-1.87,3.62,22.48,22.48,0,0,1-5.05-.78c-5.07-1.17-10.19-2.29-14.69-5.05a67.66,67.66,0,0,1-6.28-4.87l.2-.39-.88.31c-3,1.08-4.85-.09-5.38-3.23-.88-5.12.38-9.89,2.59-14.35,3.55-7.2,7.58-14.16,11.15-21.35a69.4,69.4,0,0,0,3.94-10.5c2.44-8,4.2-16.22,7.89-23.78,2-4,4.3-7.79,6.36-11.73,3.11-5.92,5.94-12,9.22-17.82,3.44-6.1,8.22-10.82,15.39-12.42,1.41-.32,2.87-.41,4.28-.74q9.06-2.14,18.1-4.38c2.13-.52,4.24-1.12,6.37-1.62,1.14-.27,1.09-1,.89-1.86-.85-3.53-2.6-6.12-6.51-6.87-5.53-1.06-8-5-8.8-10.16-.39-2.39-.49-4.82-.81-7.21-.36-2.74-1.41-5-4.19-6.19-2.33-1-3.44-3.06-4.11-5.31-1.5-5.1-1.21-10.28-.41-15.47a43.21,43.21,0,0,1,4.54-13.85c3.33-6.27,8.51-9.14,15.57-8.56a7.08,7.08,0,0,1,2.16.59c2.42,1,2.88,3.24.94,4.95a36.63,36.63,0,0,0-9,13,27.33,27.33,0,0,0-1.14,4.38l.62.27a7.72,7.72,0,0,0,.85-1.23c2.4-5.53,5.1-10.85,9.48-15.15a28.5,28.5,0,0,1,17.36-7.95,35,35,0,0,1,14.65,1.19,16.26,16.26,0,0,1,6.21,3.53,104.86,104.86,0,0,1,11,11.88c3.49,4.54,4.47,10.13,4.73,15.8a52.9,52.9,0,0,1-4.06,22.47,3.44,3.44,0,0,1-1.33,1.73,3.57,3.57,0,0,0-1.9,3c-.26,1.48-.51,3-.77,4.45a3.48,3.48,0,0,0,1.42,3.86c2.75,2.1,2.1,5,1.12,7.82-1.93,5.5-5,10.45-7.89,15.44a25,25,0,0,1-3.35,5.21,17.33,17.33,0,0,1-13.85,5.57,14.28,14.28,0,0,1-13.13-9.73c-1.3-3.42-2.71-6.83-4.31-10.13-.6-1.25-1.86-2.19-2.82-3.27l-.53.24c-.33,1.1-.59,2.24-1,3.31a79.59,79.59,0,0,1-3.27,7.85c-2.43,4.63-2.33,9.76-3.24,14.7-.81,4.36-1.19,8.81-.1,13.08.71,2.76-.31,3.69-2.31,5.2a18.34,18.34,0,0,0-7.6,15.73,4.78,4.78,0,0,0,3,4.42c.41.2,1,.73.95,1a1.8,1.8,0,0,1-1,1.1,13.43,13.43,0,0,1-2.2.61c-.05.28-.13.43-.08.48,3.18,3.43,3.1,8,4.16,12.14,1.3,5.14,2.33,10.36,3.67,15.49a16.86,16.86,0,0,0,2.29,4.41,2.08,2.08,0,0,0,1.54.82c1,0,1.4-.53.63-1.46-3.14-3.82-4.26-8.49-5.38-13.13-1.44-5.94-2.73-11.91-4-17.88a1.4,1.4,0,0,1,.35-1.08,14.74,14.74,0,0,1,1.6-1.34c.64-.51.9-1.07.24-1.75-4.1-4.29-2.17-11.51.57-14.84,3.8-4.63,9.72-3.83,12.63,1.68a26.33,26.33,0,0,1,3.16,13c0,1.43.13,2.41,2,2.1.67-.11,1.45.4,2.33.68a5.09,5.09,0,0,0,.17-4.16c-1.21-3.49-2.41-7-3.85-10.39A19.22,19.22,0,0,0,212.1,139a10.52,10.52,0,0,1-4.16-7.85c-.4-6.6-.64-13.2,1-19.71.69-2.65,2-3.86,4.7-4a3.89,3.89,0,0,1,3.61,2.91c1.07,3.19,2.12,6.39,3.33,9.53a27.82,27.82,0,0,0,2.23,4.07c3.06,5.15,6,10.35,9.25,15.41,2.11,3.34,5,4.14,8.14,2.65,1.89-.89,2.78-2.63,3.48-4.45,1.58-4.09,2.91-8.29,4.7-12.29,3.51-7.87,5.44-16.25,8.33-24.31A9,9,0,0,1,259.42,97c2.58-2,6.43,0,6.77,3.36.51,5.07,1.1,10.15,1.37,15.24.51,9.28.77,18.57,1.22,27.85a3.72,3.72,0,0,1-1.8,3.48,40.44,40.44,0,0,0-5.66,4.44c-2.55,2.68-3.95,6-2.79,9.73,1.3,4.23,5,6.15,9.46,4.82,3.92-1.17,6.6-3.7,7.31-7.93a5.47,5.47,0,0,0-2.27-5.21c-.25,1.51-.43,3-.74,4.44-.65,3-3.36,4.84-6.65,4.53a5.68,5.68,0,0,1-5.11-5.52,7,7,0,0,1,6.52-7.22,11.7,11.7,0,0,1,2.58,0c1.37.23,1.68-.42,1.69-1.61,0-6.93.19-13.87.16-20.8,0-5.1-.21-10.2-.47-15.29-.12-2.35-.76-4.67-.9-7a32.54,32.54,0,0,0-3.56-12.58,3.23,3.23,0,0,1,.78-4.09,3.11,3.11,0,0,1,4.14,0c3.44,2.65,6.74,5.48,10.21,8.09,3,2.28,6.14,4.48,9.34,6.5,1.93,1.22,4.33,1.75,6.12,3.11a25.51,25.51,0,0,1,10,14.63,115.64,115.64,0,0,1,2.71,21.16c.3,5.36.5,10.73.77,16.1a11.25,11.25,0,0,0,.36,1.71c.91-.85,1.56-1.45,2.2-2.07,7.08-6.82,14.09-13.7,20-21.63a9.32,9.32,0,0,1,7.07-4c4.11-.29,8.26-1.17,12.33.09a41.91,41.91,0,0,1,7.42,3c3.09,1.67,6,3.68,9,5.6,1.2.79,1.18,1.73.12,2.78a8.32,8.32,0,0,1-6.35,2.23c-3.54-.08-7.07-.44-10.61-.67-.58,0-1.16,0-1.74,0l-.06.45,5.4.75c2,.28,4.05.47,6,.9a2.48,2.48,0,0,1,1.71,1.39,2.87,2.87,0,0,1-.95,2.14c-1.73,1.63-4,1.89-6.26,2.14-4.42.49-8.85.88-13,2.63-1.51.64-3.2,1.69-4.65,1.49-6.13-.86-9.29,2.93-11.85,7.33a121.41,121.41,0,0,0-5.53,11.77c-2.44,5.47-4.76,11-7.18,16.47a10.24,10.24,0,0,1-1.62,2.57c-.39.44-1.34.91-1.7.73a2.39,2.39,0,0,1-1.05-1.74c-.18-4-.24-8-.29-11.93-.07-5.16-.1-10.32-.16-15.48,0-.61-.1-1.23-.18-2.16-11.33,10.35-17.6,23.58-24.32,36.51l.32.3c1.75-.72,3.5-1.44,5.25-2.18a24,24,0,0,1,13-1.35c1.18.17,1.69,1,1.14,2a6.89,6.89,0,0,1-2.54,2.72c-3.93,1.94-7.94,3.76-12,5.43-5.79,2.37-9,6.52-9.39,12.8a9.6,9.6,0,0,0,5.57,9.19c5.59,2.65,11.53,2.76,17.52,2.33,4-.3,8-.64,12-1.12,6.73-.8,13.31-2.19,19.43-5.32,8.55-4.37,17.23-8.48,25.68-13s16.68-9.69,25.14-14.3c4.18-2.28,8.64-4,13-5.89a22.05,22.05,0,0,0,10.2-9,27.83,27.83,0,0,0,4.45-16.52,23.69,23.69,0,0,0-3.74-11.83c-2.45-3.75-6.73-5-11.23-3.47-5.07,1.67-9.44,4.55-13.64,7.74-10.1,7.69-19,16.69-28.23,25.38a54,54,0,0,1-13.56,9.11c-7.37,3.6-14.83,7-22.19,10.64-2.47,1.21-5.1,2.32-6.6,4.91-.15.24-.62.3-.94.44-.15-.37-.45-.74-.43-1.1a13,13,0,0,1,2.76-6.76c3.86-5.5,9-9.71,14.51-13.31,6.54-4.26,13.32-8.19,20.13-12,5.22-2.94,8.88-7.34,12.3-12,4.47-6.15,8.76-12.45,13.46-18.43,3.23-4.11,8-6.48,12.48-8.93,4-2.19,8.3-4,12.52-5.81,1.22-.53,1.45-1.15.56-2a14.88,14.88,0,0,0-3.12-2.08c-1.36-.72-2.92-1.09-4.2-1.91-3.2-2.06-3.14-5.61-1.53-8.57a34.71,34.71,0,0,1,3.61-4.67l2.1-2.64c2.61-3.29.78-6.23-1.83-8.28-2.9-2.29-6.26-4.06-8.89-6.61a23.61,23.61,0,0,1-6-9.72,62.48,62.48,0,0,1-2.25-13c-.67-6.61-1.45-13.24-4.75-19.24a40.89,40.89,0,0,0-10.56-12.42c-3.87-3.06-8.57-3.67-13.31-3.25A55.92,55.92,0,0,0,313.93,54.2,28.63,28.63,0,0,0,306.8,67c-.24,1-.08,1.58,1,1.45,6.5-.84,10.93,3,15.41,6.72,2.54,2.13,5.08,4.29,7.76,6.24a8.14,8.14,0,0,0,7.28,1.4c3.17-.84,6.15.49,8.51,2.48,3.84,3.25,7.38,6.86,11.06,10.3a22.62,22.62,0,0,0,3,2.6c3.47,2.26,7.25,1.5,10.94.8,5-.94,9.93-1.08,14.5,1.2,6.61,3.29,8.35,10.22,3.66,16.41-1.67,2.2-2.4,5.1-3.53,7.69-1.48,3.37-2.73,6.87-4.45,10.11-2.14,4-7.1,4.53-10.54,1.3-4.12-3.85-8.1-7.85-12.34-11.56a28.75,28.75,0,0,0-6.73-4.3c-.86-.4-2.42.38-3.52.92-2.77,1.35-5.41,3-8.2,4.32-4.41,2.11-8.1,1.14-11.05-2.8-1-1.37-1.84-2.9-2.88-4.26-2.47-3.24-5.49-5.34-9.86-4.72-2,.28-2.58-.28-2.25-2.32a74.16,74.16,0,0,1,2-9.25c1.2-4-.46-9.15-4.3-12.59a34.25,34.25,0,0,1-4-4.13c-3-3.76-3.88-8.2-3.67-12.86.07-1.63-.33-2.39-2-2.5a8.82,8.82,0,0,1-2.79-.71c-2.76-1.19-3.64-3.51-2.58-6.35A47.53,47.53,0,0,1,308.6,45.31a67.49,67.49,0,0,1,26.55-16.19c4.69-1.56,9.7-2.18,14.57-3.19a37.78,37.78,0,0,1,13.62,0,32.53,32.53,0,0,1,13.86,5.65c6,4.24,9.83,10.24,13.38,16.47,2.92,5.11,5.8,10.26,8.85,15.3a11.76,11.76,0,0,0,5.68,4.55,6.38,6.38,0,0,1,4.16,6.49,63.28,63.28,0,0,1-1.58,10.78c-.91,3.87-.74,5.57,2.42,7.86,3.55,2.58,7.32,4.86,10.93,7.36,2.16,1.48,4.13,3.32,4.39,6.06a19.79,19.79,0,0,1-.62,5.37c-1.37,7.3.74,11.43,7.33,13.87,2.56.95,5.14,1.87,7.65,2.94a9.29,9.29,0,0,1,5.72,7.79,35.26,35.26,0,0,1-3.36,21.91,38.77,38.77,0,0,1-7.47,10c-.34.33-1.11.71-1.35.55a2.33,2.33,0,0,1-.71-1.43,92,92,0,0,0-5.56-21.09c-1.3-3.12-2.82-6.17-5.44-8.45a24.16,24.16,0,0,0-3.16-2.06l-.59.28a15.94,15.94,0,0,0,.4,3.62c2.17,6.28,4.6,12.47,6.66,18.78,2.11,6.47,4.22,13,5.72,19.59a191.92,191.92,0,0,1,3.42,20.94,73.55,73.55,0,0,1-.63,19.76,16.11,16.11,0,0,1-.76,2.8c-1.34,3.77-4.31,5.29-8.65,4.4-7.44-1.51-14.9-2-22.38-.38-3.67.81-7.35,1.68-10.37,4.11a6.36,6.36,0,0,0-1,1.52,5.83,5.83,0,0,0,1.68.56q35.57.12,71.13.17l33.38,0a4.18,4.18,0,0,1,1.28.05c.32.1.75.46.76.73s-.4.66-.7.78a3.88,3.88,0,0,1-1.28,0l-102.9-.14c-1,0-2.05,0-3.06-.13-1.9-.21-2.76-1.75-1.69-3.33a9.31,9.31,0,0,1,2.66-2.49c3-2,6.49-2.78,10-3.51a52.58,52.58,0,0,1,16.51-.65c2.24.24,4.46.71,6.69,1.06,3.83.59,5.73-.69,6.72-4.46a50,50,0,0,0,1.22-16.16,155.63,155.63,0,0,0-2.31-20.13,206.94,206.94,0,0,0-5.93-21.33c-2.4-7.61-5.2-15.09-7.75-22.66a8.49,8.49,0,0,1-.38-3.32c.14-1.8,1.21-2.37,2.94-1.84a10.88,10.88,0,0,1,6.47,5.71,77.43,77.43,0,0,1,5,11.63c1.37,4.21,2.09,8.63,3.11,13a12,12,0,0,0,.42,1.14l.51.21c1.72-2.39,3.64-4.67,5.14-7.21a32.32,32.32,0,0,0,4-22.94,7.71,7.71,0,0,0-4.7-5.94c-2.9-1.26-5.9-2.27-8.83-3.45-5.66-2.28-8.26-6.85-7.4-13a25.19,25.19,0,0,1,.81-4.44c.86-2.55-.13-4.49-1.94-6-2.17-1.81-4.55-3.38-6.88-5-2-1.39-4-2.75-6-4.05-3.29-2.11-3.66-5.13-2.89-8.61.63-2.87,1.19-5.77,1.68-8.68.6-3.6-.68-6.57-4.14-7.94-3.2-1.28-5.36-3.93-7-6.84-3.06-5.29-5.86-10.73-8.95-16-3.42-5.83-7.54-11.06-13.47-14.64A31.31,31.31,0,0,0,357.67,27a67.34,67.34,0,0,0-35.46,9.94,63.24,63.24,0,0,0-14.93,12.14,45.45,45.45,0,0,0-8.6,14c-.86,2.25.16,4.05,2.53,4.61.57.13,1.14.3,1.71.43a1.7,1.7,0,0,0,2.34-1.49A29.31,29.31,0,0,1,312.7,53c7.56-8.27,17-13.42,27.71-16.43A43,43,0,0,1,356.49,35a18.69,18.69,0,0,1,11,5.22c5.28,4.85,9.51,10.48,11.26,17.48a126.16,126.16,0,0,1,2.47,15.55c.72,6.14,1.65,12.23,5.81,17.09a63.28,63.28,0,0,0,7.12,6.44c1.79,1.53,3.75,2.85,5.5,4.42a5.66,5.66,0,0,1,1,7.12,25.62,25.62,0,0,1-2.83,4.06,18.49,18.49,0,0,0-4.08,6.83,3.62,3.62,0,0,0,2.32,4.8,10.63,10.63,0,0,0,2.42.82c2.34.35,3.73,2,5,3.65,1.11,1.43.81,2.53-.83,3.3-4.65,2.18-9.37,4.23-14,6.54a44.53,44.53,0,0,0-17.44,15.81c-3.37,5.15-7,10.18-10.66,15.11a30.53,30.53,0,0,1-10.91,8.84,139.21,139.21,0,0,0-21.07,13c-4.53,3.42-8.91,7.09-12.08,11.92a8.68,8.68,0,0,0-.54,1ZM257.88,70.62c.44-.31.62-.37.68-.49a6.48,6.48,0,0,0,.57-1.15c2.3-6.64,3.83-13.42,3.54-20.48a29.25,29.25,0,0,0-3.83-14.15A52,52,0,0,0,248.5,22.54c-2.41-2.17-5.06-4.15-8.33-4.65a56,56,0,0,0-10.41-.76,26.89,26.89,0,0,0-16.47,6c-4.43,3.64-7.35,8.32-9.73,13.43a51.67,51.67,0,0,1-2.67,5.31c-1,1.6-2.11,1.52-2.68-.26a7.74,7.74,0,0,1-.13-4.08c1.63-6.28,5.19-11.46,9.65-16.07.44-.46,1.09-1.35.93-1.6a3.12,3.12,0,0,0-1.8-1.36A13.49,13.49,0,0,0,193,24.86c-4.79,8.1-6.36,16.9-5.52,26.16.27,2.94,1,5.94,3.89,7.4,3.66,1.89,5,4.86,5.32,8.72a49.25,49.25,0,0,0,.89,7.18c1,4.7,4.17,7.26,8.83,8.25a7.42,7.42,0,0,1,3.56,2,11.87,11.87,0,0,1,2.91,7.15,2,2,0,0,0,.9,1.34,11,11,0,0,1,4.76,5.5c1.24,2.8,2.17,5.73,3.42,8.52,1.52,3.41,3.4,6.56,7.24,7.92,2.12.75,4.23,1.78,6.53,1.13a45.83,45.83,0,0,0,6-2.17,17,17,0,0,0,3.78-2.34c2-1.61,3-3.86,4.1-6.21,1.75-3.9,4.06-7.54,6-11.35a30.64,30.64,0,0,0,2.11-5.17,4,4,0,0,0-1.6-4.39c-.75-.51-1.44-1.12-2.28-1.78a10,10,0,0,0-.39.95c-.56,2-1,4.05-1.67,6-1.71,5.32-5.13,9-10.61,10.42a27.87,27.87,0,0,1-5.87.47,21.28,21.28,0,0,1-18.45-8.66,46,46,0,0,1-7.13-13.43c-.27-.77-.6-1.3-1.63-1.1a3.24,3.24,0,0,1-4-2.05,16.29,16.29,0,0,1-1.37-4.9c-.32-3.52-.46-7.09,1.39-10.35a2.24,2.24,0,0,1,3.53-.69c.39.29.76.6,1.21,1A48.16,48.16,0,0,1,210.87,55c2.67-5.1,7.37-7.73,12.4-10a48.21,48.21,0,0,0,6.51-3.45c2.62-1.66,5-3.74,7.65-5.32,4.65-2.76,8.89-3.09,11.65,2.83A123,123,0,0,0,256,52.18a17.46,17.46,0,0,1,2.72,11.17C258.46,65.68,258.17,68,257.88,70.62Zm51.95-.56a14.66,14.66,0,0,0-2.53,0c-.4.08-1,.56-1,.85a44.4,44.4,0,0,0,.42,7c.69,3.73,2.92,6.61,5.79,9,4.1,3.45,6.59,7.68,5.78,13.22-.45,3.09-1.21,6.14-1.93,9.19-.47,2-.44,2.08,1.59,2.15a13.59,13.59,0,0,1,11.23,6.4,42.57,42.57,0,0,0,3.77,4.8c1.93,2.09,3.82,2.39,6.36,1.1,3-1.52,5.92-3.23,8.94-4.72,2.79-1.38,5.67-1.43,8.16.6,3,2.43,5.82,5.06,8.67,7.65,2.71,2.44,5.29,5,8.06,7.4,2.52,2.17,4.84,2.07,6.78-.63a24.45,24.45,0,0,0,3.76-7.54,46.49,46.49,0,0,1,5.56-12.74c2-3.12,2.37-6.27.4-8.74a14.92,14.92,0,0,0-7.39-4.61c-4.05-1.31-8.14-.32-12.23.39-4.46.79-8.8.45-12.3-3s-6.84-7-10.46-10.25c-2.44-2.21-5.35-4.13-8.86-3.27a10.25,10.25,0,0,1-9.18-2.17c-3.91-3-7.6-6.3-11.5-9.32C315.34,71.11,312.72,69.73,309.83,70.06ZM203.88,67.84A62.13,62.13,0,0,0,205.19,74c.59,1.86,1.93,2.33,3.52,1.38,1.2-.72,1.69-.17,2,.84a45.15,45.15,0,0,0,6.49,13.39c5.71,8.16,15.25,11.86,25.19,8.14a11.88,11.88,0,0,0,2.71-1.3c3.11-2.18,4.67-5.39,5.7-8.9s1.85-7,2.91-10.51c.65-2.13,1.72-4.13,2.3-6.27a37.55,37.55,0,0,0,1-6.35c.37-3.79.15-7.47-2.2-10.77a43.31,43.31,0,0,1-2.7-4.92c-1.86-3.51-3.62-7.06-5.57-10.52-1.27-2.24-3.3-2.82-5.68-1.77A25,25,0,0,0,237,38.6c-4.86,3.34-9.55,6.84-15.13,9-4.46,1.77-8.24,4.7-10.08,9.42-.72,1.83-1.1,3.79-1.71,5.67a6.91,6.91,0,0,1-1,1.49,16.78,16.78,0,0,1-1.17-1.36c-.29-.44-.4-1-.7-1.42-.89-1.24-1.68-1.2-2.09.25C204.55,63.69,204.28,65.76,203.88,67.84ZM311.19,192.11l.58.22c.65-1.29,1.38-2.55,2-3.87,3.36-7.71,6.67-15.45,10-23.16a24.19,24.19,0,0,1,6.75-8.88,8.94,8.94,0,0,1,6.28-1.94,18.68,18.68,0,0,0,4.64-.81c3.26-.81,6.47-1.81,9.75-2.54,2.56-.58,5.19-.83,7.77-1.28a6.23,6.23,0,0,0,1.79-.7c.29-.15.47-.5.7-.76-.26-.21-.5-.55-.8-.62-1.14-.24-2.31-.42-3.47-.59-3.34-.51-6.69-.94-10-1.54-.6-.11-1.07-.88-1.59-1.35a9.15,9.15,0,0,1,1.52-1.41,3.23,3.23,0,0,1,1.57-.24c1.93,0,3.87,0,5.8.11,2.73.15,5.46.54,8.19.54a12.46,12.46,0,0,0,4.15-1c1-.38,1.26-1.15.16-1.88a43,43,0,0,0-4.56-3,95.3,95.3,0,0,0-10.26-4.51c-3.46-1.21-7.11-.5-10.7-.28-3.44.2-5.78,2-7.78,4.54-1.49,1.9-2.87,3.9-4.53,5.64-5.61,5.85-11.32,11.61-17,17.36a4.19,4.19,0,0,0-1.39,3.25c.09,7.26.09,14.51.16,21.77C310.91,187.51,311.09,189.81,311.19,192.11ZM215.83,158.2c-.11-1-.23-2-.33-3a21.08,21.08,0,0,0-3.63-10.34c-2-2.8-5.05-3.35-7.56-1.51-3.91,2.89-5.66,10.36-2.15,14.07,1.58,1.67,1.38,2.63-.4,4a2.34,2.34,0,0,0-.77,2.95c.47,1.52.85,3.09,1.2,4.65,1.21,5.43,2.18,10.93,3.68,16.28.74,2.61,2.4,5,3.73,7.4.34.61.89,1.16,1.85.51a11.81,11.81,0,0,0,5.45-7.64,70.81,70.81,0,0,0,.74-8c.33-4.65.55-9.31,1-13.95.11-1.3,0-1.76-1.35-1.34s-1.81-.24-1.68-1.51C215.66,159.9,215.74,159.05,215.83,158.2Zm36.69,72.91c-8.41-5.74-47.6-6.45-51.31-.89C218.4,231.23,235.43,232,252.52,231.11ZM179.73,197.7a6.84,6.84,0,0,0-.85-1c-4.84-3.62-9.64-7.31-14.58-10.79a32.56,32.56,0,0,0-6.16-3.09,7.1,7.1,0,0,0-2.57,0,14.83,14.83,0,0,0,1,2.22,7.63,7.63,0,0,0,1.46,1.49,64.23,64.23,0,0,0,17.59,11.09C176.74,198.06,178.16,198.79,179.73,197.7ZM131.5,210.6c.67-.37,1-.44,1.1-.63a82.76,82.76,0,0,0,4.93-7.87,24.1,24.1,0,0,1,6.53-8.61c2-1.6,4-3.2,6-4.81a16.77,16.77,0,0,0,1.24-1.3,14.75,14.75,0,0,0-7.63-.07c-.37.1-.67.7-.86,1.13a13.89,13.89,0,0,1-1,2.59c-1.8,2.41-3.93,4.58-5.56,7.08a58.58,58.58,0,0,0-4.38,8.34C131.37,207.55,131.61,209,131.5,210.6Zm136.72-59.95a5.77,5.77,0,0,0-5.5,2.93,4.07,4.07,0,0,0,.31,4.9,4.39,4.39,0,0,0,5,1.35c2.8-1.11,3.08-3.62,3.2-6.08C271.38,150.79,271.14,150.63,268.22,150.65Zm-47.57,13.09-.36,0a7.62,7.62,0,0,0-.34,1.39c-.27,5.57-.5,11.14-.79,16.71-.25,4.79-1.73,9-5.78,12a3.35,3.35,0,0,0-.61.92l.41.49a8.2,8.2,0,0,0,2-1.19,19.91,19.91,0,0,0,5.19-10.15c1.11-6.44.93-12.94.51-19.44A2.93,2.93,0,0,0,220.65,163.74Zm6.61,32.57.05-.48a3.47,3.47,0,0,0-1.19-.53,23,23,0,0,0-4.15.12c-2.31.38-4.59.91-6.86,1.48a11.68,11.68,0,0,0-2.18,1.09l.23.47C218.08,199.08,222.7,197.87,227.26,196.31Zm-41.34.48c-.49.13-1.06.24-1.61.44a7,7,0,0,0-1.05.61,3.91,3.91,0,0,0,.77,1.07c1.06.71,2.22,1.28,3.27,2s2.12.43,3.17-.06,1-1,.35-1.77C189.59,197.53,187.82,197.17,185.92,196.79Zm20.7,1.59.17-.77c-.69-.08-1.38-.23-2.08-.25-1.8,0-3.61,0-5.41-.06a25,25,0,0,1-2.69-.41l-.06.52C199.71,199.56,203.22,198.43,206.62,198.38Zm-4.72,18.68.58-.65c-1.07-.93-2.1-1.91-3.23-2.76-.26-.19-.83,0-1.26.08.07.41,0,1,.25,1.19C199.41,215.7,200.67,216.36,201.9,217.06Zm7-20.75.18,1c.71-.17,1.43-.32,2.12-.54a3.14,3.14,0,0,0-.09-.75C210.39,196.12,209.66,196.22,208.92,196.31Z"></path><path class="cls-3" d="M268.47,95.93l-9.94,9.92a7.21,7.21,0,0,1-7,1.85L238,104.05a7.19,7.19,0,0,1-5.09-5.1l-3.62-13.57a7.22,7.22,0,0,1,1.87-7l9.94-9.92a7.22,7.22,0,0,1,7-1.86l13.57,3.65a7.22,7.22,0,0,1,5.09,5.11L270.35,89A7.22,7.22,0,0,1,268.47,95.93Z"></path><path class="cls-3" d="M377.25,59.61l-9.94,9.92a7.21,7.21,0,0,1-7,1.86l-13.56-3.65a7.2,7.2,0,0,1-5.09-5.11l-3.62-13.57a7.2,7.2,0,0,1,1.87-7l9.94-9.92a7.22,7.22,0,0,1,7-1.86L370.42,34a7.22,7.22,0,0,1,5.09,5.11l3.62,13.57A7.2,7.2,0,0,1,377.25,59.61Z"></path><text class="cls-4" transform="translate(299.98 257.47)">UN PR<tspan class="cls-5" x="49.61" y="0">O</tspan><tspan x="63.13" y="0">Y</tspan><tspan class="cls-6" x="72.57" y="0">E</tspan><tspan x="82.41" y="0">C</tspan><tspan class="cls-5" x="94.23" y="0">T</tspan><tspan x="102.01" y="0">O DE GEN</tspan><tspan class="cls-7" x="180.58" y="0">T</tspan><tspan x="188.97" y="0">T</tspan></text></g></g></g></svg>